<svg width="24" height="24" viewBox="0 0 24 24" fill="none" xmlns="http://www.w3.org/2000/svg">
<path d="M14.9985 1.9998H5.99943C5.46905 1.9998 4.9604 2.21049 4.58536 2.58552C4.21033 2.96056 3.99963 3.46922 3.99963 3.9996V19.998C3.99963 20.5284 4.21033 21.037 4.58536 21.412C4.9604 21.7871 5.46905 21.9978 5.99943 21.9978H17.9982C18.5286 21.9978 19.0373 21.7871 19.4123 21.412C19.7873 21.037 19.998 20.5284 19.998 19.998V6.99929L14.9985 1.9998Z" stroke="#6A7282" stroke-width="1.9998" stroke-linecap="round" stroke-linejoin="round"/>
<path d="M13.9985 1.9998V5.9998C13.9985 6.53023 14.2092 7.03894 14.5843 7.41401C14.9594 7.78908 15.4681 7.9998 15.9985 7.9998H19.9985" stroke="#6A7282" stroke-width="1.9998" stroke-linecap="round" stroke-linejoin="round"/>
<path d="M9.99915 8.99909H7.99915" stroke="#6A7282" stroke-width="1.9998" stroke-linecap="round" stroke-linejoin="round"/>
<path d="M15.9991 12.9987H7.99915" stroke="#6A7282" stroke-width="1.9998" stroke-linecap="round" stroke-linejoin="round"/>
<path d="M15.9991 16.9983H7.99915" stroke="#6A7282" stroke-width="1.9998" stroke-linecap="round" stroke-linejoin="round"/>
</svg>
