<svg width="20" height="20" viewBox="0 0 20 20" fill="none" xmlns="http://www.w3.org/2000/svg">
<path d="M9.98934 18.3137C14.5868 18.3137 18.3138 14.5867 18.3138 9.98928C18.3138 5.39183 14.5868 1.66486 9.98934 1.66486C5.39189 1.66486 1.66492 5.39183 1.66492 9.98928C1.66492 14.5867 5.39189 18.3137 9.98934 18.3137Z" stroke="#008236" stroke-width="1.66488" stroke-linecap="round" stroke-linejoin="round"/>
<path d="M9.98927 10.8217C11.3685 10.8217 12.4866 9.70365 12.4866 8.32441C12.4866 6.94518 11.3685 5.82709 9.98927 5.82709C8.61003 5.82709 7.49194 6.94518 7.49194 8.32441C7.49194 9.70365 8.61003 10.8217 9.98927 10.8217Z" stroke="#008236" stroke-width="1.66488" stroke-linecap="round" stroke-linejoin="round"/>
<path d="M5.82715 17.1999V15.8164C5.82715 15.3748 6.00256 14.9513 6.31478 14.6391C6.62701 14.3269 7.05048 14.1515 7.49203 14.1515H12.4867C12.9282 14.1515 13.3517 14.3269 13.6639 14.6391C13.9762 14.9513 14.1516 15.3748 14.1516 15.8164V17.1999" stroke="#008236" stroke-width="1.66488" stroke-linecap="round" stroke-linejoin="round"/>
</svg>
