<svg id="Camada_1" data-name="Camada 1" xmlns="http://www.w3.org/2000/svg" viewBox="0 0 257.31 254"><defs><style>.cls-1{fill:#42bfec;}.cls-2{fill:#ade0f3;}</style></defs><path class="cls-1" d="M390.8,164.23h-.08c0-.5.08-1,.08-1.49a71.78,71.78,0,0,0-143.56,0s0,.1,0,.14A58.59,58.59,0,0,0,250,280H390.8a57.89,57.89,0,0,0,0-115.77Z" transform="translate(-191.37 -90.97)"/><path class="cls-2" d="M218.05,345a7.45,7.45,0,0,1-6.31-11.41l57.94-92.71a7.46,7.46,0,0,1,12.65,7.9l-57.95,92.72A7.44,7.44,0,0,1,218.05,345Z" transform="translate(-191.37 -90.97)"/><path class="cls-2" d="M338.18,345a7.45,7.45,0,0,1-6.32-11.41l41.07-65.71a7.46,7.46,0,1,1,12.65,7.91l-41.07,65.71A7.47,7.47,0,0,1,338.18,345Z" transform="translate(-191.37 -90.97)"/><path class="cls-2" d="M276,345a7.45,7.45,0,0,1-6.34-11.37l81.12-131.42a7.46,7.46,0,1,1,12.7,7.84L282.35,341.42A7.43,7.43,0,0,1,276,345Z" transform="translate(-191.37 -90.97)"/></svg>