<svg id="Camada_1" data-name="Camada 1" xmlns="http://www.w3.org/2000/svg" viewBox="0 0 231.06 230.75"><defs><style>.cls-1{fill:#42bfec;}.cls-2{fill:#ade0f3;}</style></defs><path class="cls-1" d="M383.45,169h-.07c0-.45.07-.89.07-1.34a64.46,64.46,0,0,0-128.91,0s0,.08,0,.12A52.61,52.61,0,0,0,257,273H383.45a52,52,0,1,0,0-104Z" transform="translate(-204.37 -103.26)"/><path class="cls-2" d="M283.54,248.67l-20.35,43.25c-4.47,9.51-4.67,20.71.34,29.95,3.54,6.53,9.61,12.13,20,12.13s16.48-5.6,20-12.13c5-9.24,4.81-20.44.34-29.95Z" transform="translate(-204.37 -103.26)"/><path class="cls-2" d="M350.61,219,330.25,262.2c-4.47,9.51-4.67,20.71.34,29.95,3.54,6.54,9.61,12.14,20,12.14s16.47-5.6,20-12.14c5-9.24,4.81-20.44.33-29.95Z" transform="translate(-204.37 -103.26)"/></svg>