<?xml version="1.0" encoding="UTF-8"?>
<svg id="Camada_2" data-name="Camada 2" xmlns="http://www.w3.org/2000/svg" xmlns:xlink="http://www.w3.org/1999/xlink" viewBox="0 0 101.14 101.12">
  <defs>
    <style>
      .cls-1 {
        fill: #eebd4c;
      }

      .cls-2 {
        fill: #31415f;
      }

      .cls-3 {
        fill: #233249;
      }

      .cls-4 {
        fill: none;
      }

      .cls-5 {
        fill: #fdd34b;
      }

      .cls-6 {
        fill: #333;
      }

      .cls-7 {
        fill: #1a1a1a;
      }

      .cls-8 {
        fill: #222c3d;
      }

      .cls-9 {
        fill: #f9c25b;
      }

      .cls-10 {
        fill: #ccc;
      }

      .cls-11 {
        clip-path: url(#clippath);
      }

      .cls-12 {
        fill: #e6e6e6;
      }
    </style>
    <clipPath id="clippath">
      <path class="cls-4" d="M71.87,50.56c0,43.47-21.31,50.56-21.31,50.56,27.93,0,50.56-22.64,50.56-50.56S78.48,0,50.56,0c0,0,21.31,7.09,21.31,50.56Z"/>
    </clipPath>
  </defs>
  <g id="Camada_1-2" data-name="Camada 1">
    <circle class="cls-2" cx="50.56" cy="50.56" r="50.56"/>
    <path class="cls-3" d="M98.93,35.81c-.75,10.11-4.23,19.56-9.68,27.59-.95-1.11-2.67-1.59-4.01-.26-1.66,1.65-2.86,3.64-4.19,5.55-2.05,2.94-4.74,2.21-7.79,1.54-4.56-1.01-10.48-.73-12.52,4.33-1.82,4.49,2.22,7.26,6.02,8.44-1.89.93-3.83,1.76-5.82,2.48-1.19-.08-2.37-.2-3.47-.23-3.99-.11-7.55-1.3-11.44-1.8-1.4-.18-3.23.21-4.3,1.16-1.28,1.14-1.31.87-3.09.64-1.8-.23-3.76.62-5.55.72-2.49.15-5.08-.65-7.59-.73-.7-.02-1.26.18-1.68.51-5.95-2.05-11.49-5.07-16.41-8.86,8.88,14.53,24.89,24.23,43.17,24.23,27.93,0,50.56-22.64,50.56-50.56,0-5.13-.77-10.09-2.19-14.75h-.02Z"/>
    <path class="cls-8" d="M99.6,38.29c.02.56.04,1.11.04,1.67,0,29.75-24.83,54.58-54.58,54.58-12.5,0-24.12-4.4-33.41-11.69,9.27,11.16,23.25,18.27,38.9,18.27,27.93,0,50.56-22.64,50.56-50.56,0-4.24-.53-8.35-1.51-12.28h0Z"/>
    <path class="cls-3" d="M91.78,45.65c-.28-.73-.6-1.45-.95-2.14-1.6-2.18-2.98-4.25-5.17-6.65-.63-.64-1.3-1.25-1.97-1.86-4.69-4.22-9.38-8.25-10.36-14.92-.58-1.29-1.28-2.52-2.07-3.7-1.57-2.35-3.52-4.47-5.68-6.29-.29-.21-.59-.41-.89-.6-2.17-.03-3.81-.07-5.72,1.36-.8.6-2.12.69-3.05.43-3.28-.9-5.53-3.88-9.02-4.7-1.95-.46-4.04-.93-6.17-1.31-8.44-.43-17.41,2.46-19.66,12.17-.59.88-1.12,1.78-1.62,2.69-.5.92-.96,1.85-1.43,2.8-.86,1.72-2.62,1.95-4.28,2.74-8.16,3.84-12.25,14-11.6,22.5.57,7.5,4.52,19.88,14.41,16.9,1.89-.57,3.49-1.88,4.66-3.44.65.1,1.29.2,1.94.33,3.35.69,4.29,4.32,5.84,6.94,4.31,7.29,16.7,6.8,19.19-1.84.54-1.88.06-4-.29-5.86-.4-2.11-.24-4.31-.73-6.4-.22-.93-.48-1.85-.73-2.77-.02-.06-.03-.11-.04-.16.9-.19,2.18-.09,2.9-.16.61-.08,1.21-.16,1.81-.25,1.89-.28,3.36-2.52,3.29-4.32-.09-2.27-.74-4.15-2.05-6-.2-.26-.39-.53-.58-.8.26-.05.51-.07.76-.03,2.2.44,4,2.29,6.33,2.71,1.32.24,2.64.21,3.97.22.03,0,.04,0,.07,0,0,.26.02.52.02.77.17,5.18,5.13,9.34,10.03,10.06,1.39.2,2.59.11,3.73-.24.57-.17,1.12-.41,1.67-.7.54-.1,1.92-1.48,2.61-1.48,2.76.69,2.76,5.52,6.21,5.52,5.52-.69,6.9-6.9,4.62-11.56v.03ZM37.04,39.38c.04,1.8-.95,3.47-2.82,3.94-.07.02-.14.02-.2.03-2.11,1.59-4.88,2.56-7.22,2.65-.88.04-1.72-.77-1.78-1.65-.13-.09-.27-.18-.4-.3-1.8-1.67.1-4.9,1.75-5.82,1.32-.74,2.87-.72,4.4-.71,1.09-1.18,2.35-1.84,4.26-1.44.73.15,1.23.88,1.29,1.59.22.15.4.33.52.57.22.3.31.68.21,1.13h-.01Z"/>
    <path class="cls-6" d="M78.59,57.42c-.9-.87-2.14-1.23-3.36-.52-.73.43-1.28,1.31-1.38,2.21-.36.19-.71.4-1.02.67-2.42,2.07-.18,5.59,2.41,6.07,1.61.3,3.1-.36,3.93-1.61.44-.5.68-1.15.7-1.83,0,0,.02-.02.02-.03,1.36-1.79.42-4.06-1.31-4.95h.01Z"/>
    <path class="cls-8" d="M24.74,64.93c-2.57-2.35-5.88-.35-7.1,2.31-.08.07-.16.14-.23.21-1.1,1.15-.99,2.74,0,3.9,1.59,1.87,4.72,2.79,6.84,1.21,1.28-.95,1.9-2.15,2.02-3.73.1-1.33-.55-3.01-1.53-3.91h0Z"/>
    <path class="cls-6" d="M88.07,19.9c-2.05-1.88-5.39-4.69-8.38-4.38-4.04.43-4.36,4.97-2.68,7.85.37.64.96,1.06,1.61,1.24.1.34.22.67.39,1.01.27.55.56.96.56,1.57-.03,2.48,2.65,3.23,4.28,2.25.2-.08.39-.19.56-.32.39-.22.73-.53.94-.95.65-1.26,1.25-2.53,2.04-3.7.02-.04.04-.08.07-.12.21-.17.42-.35.62-.56,1.02-1.04,1.12-2.88,0-3.9h0Z"/>
    <path class="cls-8" d="M82.45,37.82c-.41-.31-.79-.63-1.14-.88-2.16-.75-4.03-1.91-5.46-3.42-.29-.3-.56-.62-.81-.95-.3-.4-.58-.82-.83-1.26-.08-.35-.17-.7-.27-1.05-.29-1.05-.65-2.1-1.09-3.12-.19-.45-.4-.9-.62-1.35-.14-.49-.31-.99-.5-1.5s-.42-1.03-.68-1.54c-.97-1.04-1.71-2.39-2.42-3.75-.24-.45-.47-.91-.71-1.35-.3-1.2-1.16-2.43-2.27-3.36-.37-.31-.77-.59-1.18-.81-1.48-1.09-3.55-1.09-4.24-.4-1.72,1.72-3.19,3.89-4.06,6.22-.18.47-.33.94-.45,1.41-.36,1.47-.46,2.97-.31,4.44.05.49.13.97.23,1.45-.23,3.73-2.99,8.56,1.15,9.94.34.11.71.21,1.09.29.38.07.77.13,1.17.16,6.71-3.21,6.71,3.69,8.09,9.21.69.69,1.38,3.45,3.37,3.07.35.09.71.15,1.07.18,1.8.16,3.68-.33,5.53-.79.45-.11.89-.22,1.34-.31,3.18-.08,5.94,3.36,8.7,2.68,5.52-2.07-.69-10.35-3.86-12.34-.28-.33-.55-.61-.84-.84v-.03Z"/>
    <path class="cls-8" d="M49.04,14.64c2.24-4.35-2.59-5.04-5.07-4.63-.35-.02-.7-.02-1.04-.02-.69,0-1.35.04-1.94.1-.91.08-1.82.22-2.72.39-1.72.31-2.47.15-3.99-.69-1.99-1.09-5.4-.93-6.15,1.67-.28,1-.18,1.85-.02,2.86.26,1.63-2.61,1.36-3.71,2.09-2.3,1.53-3.29,4.05-4.77,6.25-1.42,2.1-1.47,4.79.27,6.75,2.01,2.27,3.68,4.67,6.89,4.9,1.46.1,3.09-.72,4.46-1.11,1.81-.51,4.2,1.21,5.89,1.78,2.11.72,4.8.65,7.17.11.39-.09.78-.2,1.14-.32,1.71-.34,3.09-1.72,2.4-2.41-.69-4.83-3.45-8.28-.05-12.7.13-.35.26-.68.38-1.02.36-1,.66-2.02.84-3.19.04-.29.05-.57.05-.82h-.03Z"/>
    <path class="cls-8" d="M51.13,44.17c-1.24-2.14-3.31-4.21-6.18-4.78-.41-.05-.81-.06-1.22-.02s-.82.12-1.22.25c-.4.16-.82.39-1.24.7-.42.32-.85.72-1.29,1.22-.33.3-.64.63-.95.96-.19.42-.41.79-.65,1.12-.25.33-.52.62-.81.87-4.92,2.36-11.13,3.74-10.59,10.9.03.54.1,1.08.19,1.62.36,2.16,1.14,4.29,2.07,5.99.22.38.46.76.72,1.12,1.81,2.52,4.52,4.63,7.08,6.3.43.16.86.28,1.29.35,3.01.54,5.93-.96,6.74-4.55.13-.51.22-1.04.3-1.58.24-1.61.3-3.23.28-4.58-.03-.38-.09-.75-.19-1.11-.09-.36-.22-.72-.4-1.06-1.38-2.07-2.07-4.83-2.21-7.57.14-.35.29-.64.47-.89,2.57-3.75,8.62,2.53,8.29-3.74-.07-.48-.23-.99-.48-1.52h0Z"/>
    <path class="cls-7" d="M91.65,27.83c-.74-1.08-2.11-1.57-3.3-.87-.82.48-1.32,1.51-1.19,2.46-.23,1.2-.56,2.35-.63,3.59-.12,2.12,1.18,4.18,3.48,4.13,5.02-.09,3.43-6.7,1.64-9.31h0Z"/>
    <path class="cls-8" d="M20.91,46.37c-.55-.07-.95-.16-1.23-.29-.28-.13-.45-.3-.53-.53.39-2.83,1.77-4.9,1.08-7.66-.26-.34-.5-.69-.71-1.04-.22-.35-.41-.69-.59-1.04-2.15-2.75-.08-8.96-4.91-6.89-1.38,0-2.76,2.07-3.88,4.26-.25.45-.48.94-.7,1.43-2.76,6.13-3.93,13.9-2.53,20.17.1.45.21.89.34,1.32.16,1.09.44,2.03.84,2.86.14.28.3.54.47.8,1.32,2.28,4.08,3.66,6.15,2.97,1.03,0,1.21-1.21,1.55-2.53.12-.44.25-.89.44-1.32,2.14-3.05,4.9-.98,6.97-2.36,2.07-.69,1.38-4.14,1.37-5.96-.08-.43-.21-.84-.36-1.23-.63-1.55-1.84-2.73-3.77-2.96h0Z"/>
    <g class="cls-11">
      <circle class="cls-5" cx="50.56" cy="50.56" r="50.56"/>
      <path class="cls-1" d="M98.93,35.81c-.75,10.11-4.23,19.56-9.68,27.59-.95-1.11-2.67-1.59-4.01-.26-1.66,1.65-2.86,3.64-4.19,5.55-2.05,2.94-4.74,2.21-7.79,1.54-4.56-1.01-10.48-.73-12.52,4.33-1.82,4.49,2.22,7.26,6.02,8.44-1.89.93-3.83,1.76-5.82,2.48-1.19-.08-2.37-.2-3.47-.23-3.99-.11-7.55-1.3-11.44-1.8-1.4-.18-3.23.21-4.3,1.16-1.28,1.14-1.31.87-3.09.64-1.8-.23-3.76.62-5.55.72-2.49.15-5.08-.65-7.59-.73-.7-.02-1.26.18-1.68.51-5.95-2.05-11.49-5.07-16.41-8.86,8.88,14.53,24.89,24.23,43.17,24.23,27.93,0,50.56-22.64,50.56-50.56,0-5.13-.77-10.09-2.19-14.75h-.02Z"/>
      <path class="cls-9" d="M99.6,38.29c.02.56.04,1.11.04,1.67,0,29.75-24.83,54.58-54.58,54.58-12.5,0-24.12-4.4-33.41-11.69,9.27,11.16,23.25,18.27,38.9,18.27,27.93,0,50.56-22.64,50.56-50.56,0-4.24-.53-8.35-1.51-12.28h0Z"/>
      <path class="cls-9" d="M91.78,45.65c-.28-.73-.6-1.45-.95-2.14-1.6-2.18-2.98-4.25-5.17-6.65-.63-.64-1.3-1.25-1.97-1.86-4.69-4.22-9.38-8.25-10.36-14.92-.58-1.29-1.28-2.52-2.07-3.7-1.57-2.35-3.52-4.47-5.68-6.29-.29-.21-.59-.41-.89-.6-2.17-.03-3.81-.07-5.72,1.36-.8.6-2.12.69-3.05.43-3.28-.9-5.53-3.88-9.02-4.7-1.95-.46-4.04-.93-6.17-1.31-8.44-.43-17.41,2.46-19.66,12.17-.59.88-1.12,1.78-1.62,2.69-.5.92-.96,1.85-1.43,2.8-.86,1.72-2.62,1.95-4.28,2.74-8.16,3.84-12.25,14-11.6,22.5.57,7.5,4.52,19.88,14.41,16.9,1.89-.57,3.49-1.88,4.66-3.44.65.1,1.29.2,1.94.33,3.35.69,4.29,4.32,5.84,6.94,4.31,7.29,16.7,6.8,19.19-1.84.54-1.88.06-4-.29-5.86-.4-2.11-.24-4.31-.73-6.4-.22-.93-.48-1.85-.73-2.77-.02-.06-.03-.11-.04-.16.9-.19,2.18-.09,2.9-.16.61-.08,1.21-.16,1.81-.25,1.89-.28,3.36-2.52,3.29-4.32-.09-2.27-.74-4.15-2.05-6-.2-.26-.39-.53-.58-.8.26-.05.51-.07.76-.03,2.2.44,4,2.29,6.33,2.71,1.32.24,2.64.21,3.97.22.03,0,.04,0,.07,0,0,.26.02.52.02.77.17,5.18,5.13,9.34,10.03,10.06,1.39.2,2.59.11,3.73-.24.57-.17,1.12-.41,1.67-.7.54-.1,1.92-1.48,2.61-1.48,2.76.69,2.76,5.52,6.21,5.52,5.52-.69,6.9-6.9,4.62-11.56v.03ZM37.04,39.38c.04,1.8-.95,3.47-2.82,3.94-.07.02-.14.02-.2.03-2.11,1.59-4.88,2.56-7.22,2.65-.88.04-1.72-.77-1.78-1.65-.13-.09-.27-.18-.4-.3-1.8-1.67.1-4.9,1.75-5.82,1.32-.74,2.87-.72,4.4-.71,1.09-1.18,2.35-1.84,4.26-1.44.73.15,1.23.88,1.29,1.59.22.15.4.33.52.57.21.3.31.68.21,1.13h-.01Z"/>
      <path class="cls-1" d="M78.59,57.42c-.9-.87-2.14-1.23-3.36-.52-.73.43-1.28,1.31-1.38,2.21-.36.19-.71.4-1.02.67-2.42,2.07-.18,5.59,2.41,6.07,1.61.3,3.1-.36,3.93-1.61.44-.5.68-1.15.7-1.83,0,0,.02-.02.02-.03,1.36-1.79.42-4.06-1.31-4.95h.01Z"/>
      <path class="cls-12" d="M24.74,64.93c-2.57-2.35-5.88-.35-7.1,2.31-.08.07-.16.14-.23.21-1.1,1.15-.99,2.74,0,3.9,1.59,1.87,4.72,2.79,6.84,1.21,1.28-.95,1.9-2.15,2.02-3.73.1-1.33-.55-3.01-1.53-3.91h0Z"/>
      <path class="cls-1" d="M88.07,19.9c-2.05-1.88-5.39-4.69-8.38-4.38-4.04.43-4.36,4.97-2.68,7.85.37.64.96,1.06,1.61,1.24.1.34.22.67.39,1.01.27.55.56.96.56,1.57-.03,2.48,2.65,3.23,4.28,2.25.2-.08.39-.19.56-.32.39-.22.73-.53.94-.95.65-1.26,1.25-2.53,2.04-3.7.02-.04.04-.08.07-.12.21-.17.42-.35.62-.56,1.02-1.04,1.12-2.88,0-3.9h0Z"/>
      <path class="cls-1" d="M82.45,37.82c-.41-.31-.79-.63-1.14-.88-2.16-.75-4.03-1.91-5.46-3.42-.29-.3-.56-.62-.81-.95-.3-.4-.58-.82-.83-1.26-.08-.35-.17-.7-.27-1.05-.29-1.05-.65-2.1-1.09-3.12-.19-.45-.4-.9-.62-1.35-.14-.49-.31-.99-.5-1.5s-.42-1.03-.68-1.54c-.97-1.04-1.71-2.39-2.42-3.75-.24-.45-.47-.91-.71-1.35-.3-1.2-1.16-2.43-2.27-3.36-.37-.31-.77-.59-1.18-.81-1.48-1.09-3.55-1.09-4.24-.4-1.72,1.72-3.19,3.89-4.06,6.22-.18.47-.33.94-.45,1.41-.36,1.47-.46,2.97-.31,4.44.05.49.13.97.23,1.45-.23,3.73-2.99,8.56,1.15,9.94.34.11.71.21,1.09.29.38.07.77.13,1.17.16,6.71-3.21,6.71,3.69,8.09,9.21.69.69,1.38,3.45,3.37,3.07.35.09.71.15,1.07.18,1.8.16,3.68-.33,5.53-.79.45-.11.89-.22,1.34-.31,3.18-.08,5.94,3.36,8.7,2.68,5.52-2.07-.69-10.35-3.86-12.34-.28-.33-.55-.61-.84-.84v-.03Z"/>
      <path class="cls-10" d="M49.04,14.64c2.24-4.35-2.59-5.04-5.07-4.63-.35-.02-.7-.02-1.04-.02-.69,0-1.35.04-1.94.1-.91.08-1.82.22-2.72.39-1.72.31-2.47.15-4-.69-1.99-1.09-5.4-.93-6.15,1.67-.28,1-.18,1.85-.02,2.86.26,1.63-2.61,1.36-3.71,2.09-2.3,1.53-3.29,4.05-4.77,6.25-1.42,2.1-1.47,4.79.27,6.75,2.01,2.27,3.68,4.67,6.89,4.9,1.46.1,3.09-.72,4.46-1.11,1.81-.51,4.2,1.21,5.89,1.78,2.11.72,4.8.65,7.17.11.39-.09.78-.2,1.14-.32,1.71-.34,3.09-1.72,2.4-2.41-.69-4.83-3.45-8.28-.05-12.7.13-.35.26-.68.38-1.02.36-1,.66-2.02.84-3.19.04-.29.05-.57.05-.82h-.02Z"/>
      <path class="cls-10" d="M51.13,44.17c-1.24-2.14-3.31-4.21-6.18-4.78-.41-.05-.81-.06-1.22-.02s-.82.12-1.22.25c-.4.16-.82.39-1.24.7-.42.32-.85.72-1.29,1.22-.33.3-.64.63-.95.96-.19.42-.41.79-.65,1.12-.25.33-.52.62-.81.87-4.92,2.36-11.13,3.74-10.59,10.9.03.54.1,1.08.19,1.62.36,2.16,1.14,4.29,2.07,5.99.22.38.46.76.72,1.12,1.81,2.52,4.52,4.63,7.08,6.3.43.16.86.28,1.29.35,3.01.54,5.93-.96,6.74-4.55.13-.51.22-1.04.3-1.58.24-1.61.3-3.23.28-4.58-.03-.38-.09-.75-.19-1.11-.09-.36-.22-.72-.4-1.06-1.38-2.07-2.07-4.83-2.21-7.57.14-.35.29-.64.47-.89,2.57-3.75,8.62,2.53,8.28-3.74-.07-.48-.23-.99-.48-1.52h0Z"/>
      <path class="cls-1" d="M91.65,27.83c-.74-1.08-2.11-1.57-3.3-.87-.82.48-1.32,1.51-1.19,2.46-.23,1.2-.56,2.35-.63,3.59-.12,2.12,1.18,4.18,3.48,4.13,5.02-.09,3.43-6.7,1.64-9.31h0Z"/>
      <path class="cls-10" d="M20.91,46.37c-.55-.07-.95-.16-1.23-.29-.28-.13-.45-.3-.53-.53.39-2.83,1.77-4.9,1.08-7.66-.26-.34-.5-.69-.71-1.04-.22-.35-.41-.69-.59-1.04-2.15-2.75-.08-8.96-4.91-6.89-1.38,0-2.76,2.07-3.88,4.26-.25.45-.48.94-.7,1.43-2.76,6.13-3.93,13.9-2.53,20.17.1.45.21.89.34,1.32.16,1.09.44,2.03.84,2.86.14.28.3.54.47.8,1.32,2.28,4.08,3.66,6.15,2.97,1.03,0,1.21-1.21,1.55-2.53.12-.44.25-.89.44-1.32,2.14-3.05,4.9-.98,6.97-2.36,2.07-.69,1.38-4.14,1.37-5.96-.08-.43-.21-.84-.36-1.23-.63-1.55-1.84-2.73-3.77-2.96h0Z"/>
    </g>
  </g>
</svg>