<svg id="Camada_1" data-name="Camada 1" xmlns="http://www.w3.org/2000/svg" viewBox="0 0 264.32 271.63"><defs><style>.cls-1{fill:#42bfec;}.cls-2{fill:#ade0f3;}</style></defs><path class="cls-1" d="M388.23,180.08h-.08c0-.51.08-1,.08-1.53a73.73,73.73,0,0,0-147.46,0v.14A60.19,60.19,0,0,0,243.59,299H388.23a59.46,59.46,0,0,0,0-118.92Z" transform="translate(-183.37 -104.82)"/><polygon class="cls-2" points="87.23 204.45 99.03 225.35 122.55 230.11 106.32 247.79 109.06 271.63 87.23 261.66 65.4 271.63 68.13 247.79 51.9 230.11 75.43 225.35 87.23 204.45"/><polygon class="cls-2" points="168.88 129.19 184.36 156.61 215.22 162.86 193.93 186.05 197.52 217.33 168.88 204.25 140.25 217.33 143.84 186.05 122.55 162.86 153.4 156.61 168.88 129.19"/></svg>