<svg id="Camada_1" data-name="Camada 1" xmlns="http://www.w3.org/2000/svg" viewBox="0 0 344.69 269.64"><defs><style>.cls-1{fill:#82d2ec;}.cls-2{fill:#42bfec;}</style></defs><path class="cls-1" d="M346.69,160.56h-.08c0-.54.08-1.06.08-1.59a76.62,76.62,0,0,0-153.24,0c0,.05,0,.09,0,.14a62.55,62.55,0,0,0,2.93,125h150.3a61.8,61.8,0,0,0,0-123.59Z" transform="translate(-133.81 -82.36)"/><path class="cls-2" d="M416.7,228.42h-.08c0-.53.08-1,.08-1.59a76.62,76.62,0,1,0-153.24,0s0,.1,0,.15a62.54,62.54,0,0,0,2.93,125H416.7a61.79,61.79,0,1,0,0-123.58Z" transform="translate(-133.81 -82.36)"/></svg>