<svg id="Camada_1" data-name="Camada 1" xmlns="http://www.w3.org/2000/svg" viewBox="0 0 346.03 261.36"><defs><style>.cls-1{fill:#faaf40;}.cls-2{fill:#42bfec;}</style></defs><circle class="cls-1" cx="268.37" cy="212.73" r="59.17" transform="translate(-216.78 161.93) rotate(-45)"/><path class="cls-1" d="M268.37,137.51a7.46,7.46,0,0,1-7.46-7.46V97.6a7.46,7.46,0,0,1,14.92,0v32.45A7.46,7.46,0,0,1,268.37,137.51Z" transform="translate(-144.97 -90.14)"/><path class="cls-1" d="M184.88,221H152.42a7.46,7.46,0,0,1,0-14.92h32.46a7.46,7.46,0,0,1,0,14.92Z" transform="translate(-144.97 -90.14)"/><path class="cls-1" d="M209.33,162a7.42,7.42,0,0,1-5.27-2.19l-22.95-22.95a7.46,7.46,0,1,1,10.55-10.54l22.94,22.94A7.47,7.47,0,0,1,209.33,162Z" transform="translate(-144.97 -90.14)"/><path class="cls-1" d="M186.39,303a7.46,7.46,0,0,1-5.28-12.73l22.95-22.95a7.46,7.46,0,0,1,10.54,10.55l-22.94,22.95A7.47,7.47,0,0,1,186.39,303Z" transform="translate(-144.97 -90.14)"/><path class="cls-1" d="M327.41,162a7.47,7.47,0,0,1-5.27-12.74l22.94-22.94a7.46,7.46,0,1,1,10.55,10.54l-22.95,22.95A7.4,7.4,0,0,1,327.41,162Z" transform="translate(-144.97 -90.14)"/><path class="cls-2" d="M433.11,235.73H433c0-.5.07-1,.07-1.49a71.78,71.78,0,1,0-143.55,0v.14a58.59,58.59,0,0,0,2.75,117.12h140.8a57.89,57.89,0,0,0,0-115.78Z" transform="translate(-144.97 -90.14)"/></svg>