<svg id="Camada_1" data-name="Camada 1" xmlns="http://www.w3.org/2000/svg" viewBox="0 0 335.99 281.49"><defs><style>.cls-1{fill:#faaf40;}.cls-2{fill:#42bfec;}</style></defs><path class="cls-1" d="M416.67,222.28a62.93,62.93,0,1,1,16-123.72,90.48,90.48,0,1,0,34.18,98.62A62.77,62.77,0,0,1,416.67,222.28Z" transform="translate(-130.88 -81.51)"/><path class="cls-2" d="M343,239.87h-.08c0-.54.08-1,.08-1.59a76.34,76.34,0,0,0-152.68,0c0,.05,0,.1,0,.15A62.31,62.31,0,0,0,193.23,363H343a61.57,61.57,0,0,0,0-123.13Z" transform="translate(-130.88 -81.51)"/></svg>