<svg id="Camada_1" data-name="Camada 1" xmlns="http://www.w3.org/2000/svg" viewBox="0 0 300.46 300.46"><defs><style>.cls-1{fill:#faaf40;}</style></defs><circle class="cls-1" cx="302.28" cy="229.77" r="72.04" transform="translate(-143.58 389.73) rotate(-76.54)"/><path class="cls-1" d="M302.28,138.21a9.08,9.08,0,0,1-9.08-9.08V89.62a9.08,9.08,0,0,1,18.16,0v39.51A9.09,9.09,0,0,1,302.28,138.21Z" transform="translate(-152.05 -80.54)"/><path class="cls-1" d="M302.28,381a9.07,9.07,0,0,1-9.08-9.08v-39.5a9.08,9.08,0,1,1,18.16,0v39.5A9.08,9.08,0,0,1,302.28,381Z" transform="translate(-152.05 -80.54)"/><path class="cls-1" d="M443.43,239.85H403.92a9.08,9.08,0,0,1,0-18.16h39.51a9.08,9.08,0,0,1,0,18.16Z" transform="translate(-152.05 -80.54)"/><path class="cls-1" d="M161.13,239.85h39.5a9.08,9.08,0,0,0,0-18.16h-39.5a9.08,9.08,0,1,0,0,18.16Z" transform="translate(-152.05 -80.54)"/><path class="cls-1" d="M230.4,168a9,9,0,0,1-6.41-2.66l-27.94-27.94a9.08,9.08,0,0,1,12.84-12.84l27.93,27.94A9.08,9.08,0,0,1,230.4,168Z" transform="translate(-152.05 -80.54)"/><path class="cls-1" d="M402.08,339.66a9.08,9.08,0,0,1-6.42-2.66l-27.93-27.94a9.08,9.08,0,1,1,12.84-12.83l27.93,27.93a9.08,9.08,0,0,1-6.42,15.5Z" transform="translate(-152.05 -80.54)"/><path class="cls-1" d="M202.47,339.66a9.08,9.08,0,0,1-6.42-15.5L224,296.23a9.07,9.07,0,1,1,12.83,12.83L208.89,337A9.06,9.06,0,0,1,202.47,339.66Z" transform="translate(-152.05 -80.54)"/><path class="cls-1" d="M374.15,168a9.08,9.08,0,0,1-6.42-15.5l27.93-27.94a9.08,9.08,0,1,1,12.84,12.84l-27.93,27.94A9.06,9.06,0,0,1,374.15,168Z" transform="translate(-152.05 -80.54)"/></svg>