<svg id="Camada_1" data-name="Camada 1" xmlns="http://www.w3.org/2000/svg" viewBox="0 0 232.72 257.85"><defs><style>.cls-1{fill:#ade0f3;}.cls-2{fill:#42bfec;}.cls-3{fill:#faaf40;}</style></defs><path class="cls-1" d="M369.63,275.73l-16.52,35.11a27.06,27.06,0,0,0,.27,24.31c2.88,5.3,7.8,9.85,16.25,9.85s13.38-4.55,16.25-9.85a27,27,0,0,0,.27-24.31Z" transform="translate(-208.37 -87.15)"/><path class="cls-2" d="M388.74,153.41h-.07c0-.45.07-.89.07-1.35a64.92,64.92,0,0,0-129.84,0c0,.05,0,.09,0,.13a53,53,0,0,0,2.48,105.92H388.74a52.35,52.35,0,0,0,0-104.7Z" transform="translate(-208.37 -87.15)"/><polygon class="cls-3" points="161.26 155.08 96.75 155.08 129.46 96.93 96.75 96.93 50.4 180.4 100.38 180.4 80.39 255.94 161.26 155.08"/></svg>