<svg id="Camada_1" data-name="Camada 1" xmlns="http://www.w3.org/2000/svg" viewBox="0 0 319.52 205.45"><defs><style>.cls-1{fill:#42bfec;}.cls-2{fill:#ade0f3;}</style></defs><path class="cls-1" d="M335.29,184.27h-.06c0-.42.06-.82.06-1.24a59.49,59.49,0,1,0-119,0v.12a48.56,48.56,0,0,0,2.28,97.07h116.7a48,48,0,0,0,0-96Z" transform="translate(-170 -123.55)"/><path class="cls-2" d="M460.57,230.27H364.5a8.24,8.24,0,0,1,0-16.48h96.07a12.46,12.46,0,0,0,0-24.92h-12.2a8.24,8.24,0,0,1,0-16.48h12.2a28.94,28.94,0,1,1,0,57.88Z" transform="translate(-170 -123.55)"/><path class="cls-2" d="M429.26,329a37,37,0,0,1-36.91-36.9,25.23,25.23,0,0,1,50.46,0v4.24a8.24,8.24,0,0,1-16.48,0V292.1a8.75,8.75,0,1,0-17.49,0,20.42,20.42,0,0,0,40.84,0v-8.44a27.94,27.94,0,0,0-27.91-27.91H292.31a8.24,8.24,0,0,1,0-16.48H421.77a44.44,44.44,0,0,1,44.39,44.39v8.44A36.94,36.94,0,0,1,429.26,329Z" transform="translate(-170 -123.55)"/></svg>